<?xml version="1.0" encoding="UTF-8"?>
<svg width="489.06" height="620" version="1.1" viewBox="0 0 489.06 620" xmlns="http://www.w3.org/2000/svg" xmlns:cc="http://creativecommons.org/ns#" xmlns:dc="http://purl.org/dc/elements/1.1/" xmlns:rdf="http://www.w3.org/1999/02/22-rdf-syntax-ns#">
 <metadata>
  <rdf:RDF>
   <cc:Work rdf:about="">
    <dc:format>image/svg+xml</dc:format>
    <dc:type rdf:resource="http://purl.org/dc/dcmitype/StillImage"/>
    <dc:title>Gematik_Piktogramme_Versicherte Blau</dc:title>
   </cc:Work>
  </rdf:RDF>
 </metadata>
 <defs>
  <style>.cls-1{fill:#000e52;}</style>
 </defs>
 <title>Gematik_Piktogramme_Versicherte Blau</title>
 <g transform="matrix(37.049 0 0 37.049 -200.92 -105.24)">
  <path class="cls-1" d="m9 8a3 3 0 1 0 3-3 3 3 0 0 0-3 3zm5 0a2 2 0 1 1-2-2 2 2 0 0 1 2 2z"/>
  <path d="m12.02 12.006c-0.86282 7.48e-4 -1.7254 0.2217-2.498 0.66016-1.5452 0.87692-2.4964 2.5014-2.4785 4.2539a0.5 0.5 0 0 0 0.50391 0.49609 0.5 0.5 0 0 0 0.49609-0.50586c-0.014147-1.3853 0.73258-2.6724 1.9707-3.375 1.2381-0.70265 2.7723-0.70442 4.0117-0.0039 1.2394 0.70051 1.9901 1.9878 1.9785 3.373a0.5 0.5 0 0 0 0.49609 0.5039 0.5 0.5 0 0 0 0.50391-0.49609c0.0147-1.7525-0.93954-3.3758-2.4863-4.25-0.77339-0.43712-1.6352-0.657-2.498-0.65625z" color="#000000" color-rendering="auto" dominant-baseline="auto" fill="#000e52" image-rendering="auto" shape-rendering="auto" solid-color="#000000" stop-color="#000000" style="font-feature-settings:normal;font-variant-alternates:normal;font-variant-caps:normal;font-variant-east-asian:normal;font-variant-ligatures:normal;font-variant-numeric:normal;font-variant-position:normal;font-variation-settings:normal;inline-size:0;isolation:auto;mix-blend-mode:normal;shape-margin:0;shape-padding:0;text-decoration-color:#000000;text-decoration-line:none;text-decoration-style:solid;text-indent:0;text-orientation:mixed;text-transform:none;white-space:normal"/>
 </g>
</svg>
